<?xml version="1.0" encoding="utf-8"?>
<!-- Generator: Adobe Illustrator 25.4.1, SVG Export Plug-In . SVG Version: 6.00 Build 0)  -->
<svg version="1.1" id="Layer_1" xmlns="http://www.w3.org/2000/svg" xmlns:xlink="http://www.w3.org/1999/xlink" x="0px" y="0px"
	 viewBox="0 0 850.4 850.4" style="enable-background:new 0 0 850.4 850.4;" xml:space="preserve">
<style type="text/css">
	.st0{fill-rule:evenodd;clip-rule:evenodd;fill:#3B4249;}
</style>
<path class="st0" d="M192.6,251.4C361.7,306,502.4,462.2,516.2,616.2c80.2-215.8-99.4-440.4-454.6-443.1
	C101.9,282.2,91.4,386.6,162,485.2c70.6,98.1,181.9,159,302.9,165.4C454.8,494.3,346.1,330.7,192.6,251.4L192.6,251.4z"/>
<path class="st0" d="M724.7,227.6c-86.2,43.5-148.9,139.3-143.4,223.6c-61.4-109.5,17-245.6,207.6-276.8
	c-12.4,62.3,1.8,117.8-28,176.4c-29.8,58.7-84.8,100.8-149.4,114.6C604.1,380.2,648.6,283.1,724.7,227.6L724.7,227.6z"/>
</svg>
