<svg xmlns="http://www.w3.org/2000/svg" width="15.86" height="15.86" viewBox="0 0 15.86 15.86">
  <path id="insta" d="M5.591,8.351a2.643,2.643,0,1,1,2.643,2.644A2.643,2.643,0,0,1,5.591,8.351Zm-1.429,0A4.072,4.072,0,1,0,8.234,4.279,4.072,4.072,0,0,0,4.161,8.351Zm7.354-4.233a.952.952,0,1,0,.952-.951h0a.952.952,0,0,0-.952.951ZM5.03,14.805a4.38,4.38,0,0,1-1.473-.273,2.464,2.464,0,0,1-.912-.593,2.448,2.448,0,0,1-.593-.912,4.379,4.379,0,0,1-.273-1.473c-.038-.836-.046-1.087-.046-3.2s.008-2.368.046-3.2a4.412,4.412,0,0,1,.273-1.473,2.465,2.465,0,0,1,.593-.912,2.444,2.444,0,0,1,.912-.593A4.379,4.379,0,0,1,5.03,1.9c.836-.038,1.087-.046,3.2-.046s2.368.008,3.2.046a4.413,4.413,0,0,1,1.473.273,2.457,2.457,0,0,1,.912.593,2.457,2.457,0,0,1,.593.912,4.379,4.379,0,0,1,.273,1.473c.038.837.046,1.087.046,3.2s-.008,2.368-.046,3.2a4.4,4.4,0,0,1-.273,1.473,2.625,2.625,0,0,1-1.505,1.5,4.377,4.377,0,0,1-1.473.273c-.836.038-1.087.046-3.2.046S5.865,14.844,5.03,14.805ZM4.964.469A5.815,5.815,0,0,0,3.039.837a3.89,3.89,0,0,0-1.4.915,3.874,3.874,0,0,0-.915,1.4A5.816,5.816,0,0,0,.351,5.081C.312,5.927.3,6.2.3,8.351s.009,2.424.048,3.269A5.816,5.816,0,0,0,.72,13.545a3.876,3.876,0,0,0,.915,1.4,3.9,3.9,0,0,0,1.4.915,5.821,5.821,0,0,0,1.925.368c.846.038,1.116.048,3.269.048s2.424-.009,3.269-.048a5.817,5.817,0,0,0,1.925-.368,4.055,4.055,0,0,0,2.32-2.319,5.8,5.8,0,0,0,.368-1.925c.038-.846.047-1.116.047-3.269s-.009-2.424-.047-3.269a5.815,5.815,0,0,0-.368-1.925,3.9,3.9,0,0,0-.915-1.4,3.881,3.881,0,0,0-1.4-.915A5.808,5.808,0,0,0,11.5.469C10.658.43,10.388.421,8.234.421S5.81.43,4.964.469Z" transform="translate(-0.303 -0.421)" fill="#fff"/>
</svg>
