<svg xmlns="http://www.w3.org/2000/svg" width="16.449" height="16.38" viewBox="0 0 16.449 16.38">
  <path id="linkedin" d="M15.232,0H1.25A1.2,1.2,0,0,0,.1.716,1.191,1.191,0,0,0,0,1.18V15.2a1.2,1.2,0,0,0,.756,1.095,1.206,1.206,0,0,0,.461.085H15.2a1.208,1.208,0,0,0,1.147-.717,1.2,1.2,0,0,0,.1-.463V1.18A1.207,1.207,0,0,0,15.232,0ZM4.935,13.922H2.467V5.733H4.935ZM3.7,4.914a1.234,1.234,0,0,1-1.14-.758,1.229,1.229,0,0,1,.9-1.675A1.236,1.236,0,0,1,4.727,3,1.229,1.229,0,0,1,3.7,4.914Zm10.281,9.008H11.613V10.041c0-.934,0-2.121-1.234-2.121S8.956,8.927,8.956,9.967v3.955H6.58V5.93H8.858v1.1a2.469,2.469,0,0,1,2.278-1.294c2.4,0,2.846,1.638,2.846,3.808Z" fill="#fff"/>
</svg>
