<svg id="Groupe_60" data-name="Groupe 60" xmlns="http://www.w3.org/2000/svg" width="224.155" height="89.155" viewBox="0 0 224.155 89.155">
  <path id="Tracé_36" data-name="Tracé 36" d="M3408.43,9117.936H3398.1l-.007-46.085h10.027Z" transform="translate(-3243.043 -9028.933)" fill="#283D47"/>
  <path id="Tracé_37" data-name="Tracé 37" d="M3435.839,9127.574c-7.444.585-15.279-.2-20.848-5-4.473-3.866-6.569-9.413-6.225-16.489.413-8.559,5.065-14.56,13.451-17.363,5.445-1.818,16.26-.881,24.022.733.1-1.947.108-5.678-.749-7.5-2.1-4.49-20.195-9.155-37.285-10.237l.076-9.541c18.711.861,41.2,6.091,46.622,16.292,3.274,6.157,2,38.124,1.822,41.343s-.18,4.012-1.019,4.555a12.644,12.644,0,0,1-3.17.967A115.992,115.992,0,0,1,3435.839,9127.574Zm-3.194-30.6a25.7,25.7,0,0,0-6.171,1.119c-5.017,1.676-7.246,5.131-7.484,10.032-.172,3.538,1.41,6.646,3.134,7.945,3.319,2.5,6.4,2.375,11.428,2.176a61.943,61.943,0,0,0,12.543-1.874,72.2,72.2,0,0,0,.551-17.041C3442.852,9097.994,3435.987,9096.713,3432.645,9096.974Z" transform="translate(-3232.962 -9038.587)" fill="#283D47"/>
  <path id="Tracé_38" data-name="Tracé 38" d="M3337.113,9087.041" transform="translate(-3303.86 -9013.781)" fill="#242424"/>
  <path id="Tracé_39" data-name="Tracé 39" d="M3367.381,9052.385a11.445,11.445,0,1,1-11.444,11.446,11.444,11.444,0,0,1,11.444-11.446" transform="translate(-3285.086 -9048.341)" fill="#FC9254"/>
  <path id="Tracé_40" data-name="Tracé 40" d="M3390.115,9050.379s-2.169,11.775-5.433,41.483c-3.783,34.438.417,37.479,18.89,36.5,6.116-.253,9.154-1.564,9.154-1.564v11.446a35.509,35.509,0,0,1-9.154,1.053c-6.928,0-19.383.418-24.337-6.587-7.277-10.295-6.834-20.357-4.27-40.965,5.077-40.78,5.562-41.381,5.562-41.381Z" transform="translate(-3267.807 -9050.36)" fill="#283D47"/>
  <path id="Tracé_41" data-name="Tracé 41" d="M3388.439,9089.436" transform="translate(-3252.674 -9011.394)" fill="#242424"/>
  <path id="Tracé_42" data-name="Tracé 42" d="M3408.823,9072.318c-2.93,0-5.846-.231-8.666-.284-.673-.01-1.346-.018-2.023-.029a.168.168,0,0,1-.164-.161l-.1-10a.129.129,0,0,1,.05-.1.153.153,0,0,1,.116-.031h.006c.07,0,6.887.19,10.732.347.087,0,.091.062.091.15v9.979c0,.046.048.075.014.106s0,.03-.046.03Z" transform="translate(-3243.266 -9039.048)" fill="#283D47"/>
  <g id="Groupe_59" data-name="Groupe 59" transform="translate(0 27.113)">
    <path id="Tracé_43" data-name="Tracé 43" d="M3366.575,9074.992c-4.007-6.664-10.07-11.056-19.18-11.056-13.034,0-27.486,6.793-26.916,33.6.174,8.2,2.219,16.709,7.838,22.16,4.65,4.512,11.856,6.105,18.137,6.129.142.006.281,0,.422.008a75.134,75.134,0,0,1,6.062-10.627,20.4,20.4,0,0,1-5.451.516l-.2,0c-3.407,0-8.413-.439-11.572-3.4-2.842-2.67-4.356-7.1-4.771-11.89,5.544.3,30.077,2.671,35.26-4.831l.364-.437.383-.606C3369.865,9090.666,3370.428,9081.4,3366.575,9074.992Zm-8.341,13.2c-.729,2.627-3.112,2.576-27.2,2.576,2.031-14.484,11.47-17.235,15.1-17.235,8.229,0,9.793,3.854,10.874,5.767C3358.756,9082.395,3358.5,9086.925,3358.235,9088.194Z" transform="translate(-3320.464 -9063.937)" fill="#283D47"/>
  </g>
  <path id="Tracé_44" data-name="Tracé 44" d="M3397.921,9070.41a109.669,109.669,0,0,0-20.637,10.469l-12.969-19.138-10.691,2.651,15.263,22.434c-2.257,1.751-4.462,3.56-6.579,5.453a117.422,117.422,0,0,0-26.62,35.735h14.047s3.955-12.7,19.985-27.041c1.736-1.55,3.579-3.153,5.544-4.77l21.639,31.811h12.322l-25.763-38.021c14.62-10.1,35.271-19.085,67.132-18.287l.032-9.9C3430.062,9061.291,3414.611,9064.1,3397.921,9070.41Z" transform="translate(-3305.279 -9039.01)" fill="#FC9254"/>
</svg>
