<svg id="Groupe_5226" data-name="Groupe 5226" xmlns="http://www.w3.org/2000/svg" width="23.172" height="20.293" viewBox="0 0 23.172 20.293">
  <path id="Tracé_82" data-name="Tracé 82" d="M160.6,572.637a7.876,7.876,0,0,1-2.5.646,4.808,4.808,0,0,0,2.113-2.658,9.61,9.61,0,0,1-3.05,1.167,4.811,4.811,0,0,0-8.317,3.288,4.725,4.725,0,0,0,.126,1.1,13.653,13.653,0,0,1-9.907-5.023,4.809,4.809,0,0,0,1.486,6.417,4.789,4.789,0,0,1-2.177-.6v.062a4.813,4.813,0,0,0,3.856,4.713,4.841,4.841,0,0,1-1.265.168,4.789,4.789,0,0,1-.9-.084,4.807,4.807,0,0,0,4.489,3.336,9.708,9.708,0,0,1-7.117,1.99s1.771,2.451,7.962,3.308,16.836-3.322,13.066-15.445A8.424,8.424,0,0,0,160.6,572.637Z" transform="translate(-137.426 -570.275)" fill="#f8f8f8"/>
</svg>
