<svg width="50" height="36" viewBox="0 0 50 36" fill="none" xmlns="http://www.w3.org/2000/svg">
<g clip-path="url(#clip0)">
<path fill-rule="evenodd" clip-rule="evenodd" d="M44.5632 1.07084C46.7049 1.64744 48.3935 3.33607 48.9701 5.47774C50.041 9.39041 49.9998 17.5452 49.9998 17.5452C49.9998 17.5452 49.9998 25.6589 48.9701 29.5715C48.3935 31.7132 46.7049 33.4018 44.5632 33.9784C40.6506 35.0081 24.9999 35.0081 24.9999 35.0081C24.9999 35.0081 9.3904 35.0081 5.43655 33.9373C3.29488 33.3607 1.60625 31.672 1.02965 29.5304C0 25.6589 0 17.504 0 17.504C0 17.504 0 9.39041 1.02965 5.47774C1.60625 3.33607 3.33606 1.60625 5.43655 1.02965C9.34922 0 24.9999 0 24.9999 0C24.9999 0 40.6506 0 44.5632 1.07084ZM20.0164 10.0082L33.0312 17.504L20.0164 24.9999V10.0082Z" fill="white"/>
</g>
<defs>
<clipPath id="clip0">
<rect width="50" height="35.0081" fill="white"/>
</clipPath>
</defs>
</svg>
